<mxfile host="app.diagrams.net" modified="2023-05-10T09:07:49.889Z" agent="Mozilla/5.0 (Windows NT 10.0; Win64; x64) AppleWebKit/537.36 (KHTML, like Gecko) Chrome/112.0.0.0 Safari/537.36 Edg/112.0.1722.68" etag="WuQcU_attBzbcxFmr0oU" version="21.2.9" type="github">
  <diagram name="第 1 页" id="turkAhPr9zFCfq3p8eQr">
    <mxGraphModel dx="921" dy="578" grid="1" gridSize="10" guides="1" tooltips="1" connect="1" arrows="1" fold="1" page="1" pageScale="1" pageWidth="827" pageHeight="1169" math="0" shadow="0">
      <root>
        <mxCell id="0" />
        <mxCell id="1" parent="0" />
        <mxCell id="1PEm1bFxlQT37k7Xql6N-1" value="&lt;font style=&quot;font-size: 22px;&quot;&gt;地区&lt;/font&gt;" style="ellipse;whiteSpace=wrap;html=1;aspect=fixed;" vertex="1" parent="1">
          <mxGeometry x="180" y="100" width="80" height="80" as="geometry" />
        </mxCell>
        <mxCell id="1PEm1bFxlQT37k7Xql6N-2" value="&lt;font style=&quot;font-size: 22px;&quot;&gt;地区&lt;/font&gt;" style="ellipse;whiteSpace=wrap;html=1;aspect=fixed;" vertex="1" parent="1">
          <mxGeometry x="380" y="30" width="80" height="80" as="geometry" />
        </mxCell>
        <mxCell id="1PEm1bFxlQT37k7Xql6N-5" value="" style="endArrow=classic;html=1;rounded=0;entryX=0;entryY=0.5;entryDx=0;entryDy=0;exitX=1;exitY=0.5;exitDx=0;exitDy=0;" edge="1" parent="1" source="1PEm1bFxlQT37k7Xql6N-1" target="1PEm1bFxlQT37k7Xql6N-2">
          <mxGeometry relative="1" as="geometry">
            <mxPoint x="310" y="138" as="sourcePoint" />
            <mxPoint x="420" y="138" as="targetPoint" />
          </mxGeometry>
        </mxCell>
        <mxCell id="1PEm1bFxlQT37k7Xql6N-6" value="属于" style="edgeLabel;resizable=0;html=1;align=center;verticalAlign=middle;" connectable="0" vertex="1" parent="1PEm1bFxlQT37k7Xql6N-5">
          <mxGeometry relative="1" as="geometry">
            <mxPoint y="10" as="offset" />
          </mxGeometry>
        </mxCell>
        <mxCell id="1PEm1bFxlQT37k7Xql6N-8" value="&lt;span style=&quot;font-size: 22px;&quot;&gt;时间&lt;/span&gt;" style="ellipse;whiteSpace=wrap;html=1;aspect=fixed;" vertex="1" parent="1">
          <mxGeometry x="10" y="150" width="80" height="80" as="geometry" />
        </mxCell>
        <mxCell id="1PEm1bFxlQT37k7Xql6N-9" value="&lt;span style=&quot;font-size: 22px;&quot;&gt;基础&lt;br&gt;设施&lt;br&gt;&lt;/span&gt;" style="ellipse;whiteSpace=wrap;html=1;aspect=fixed;" vertex="1" parent="1">
          <mxGeometry x="270" y="270" width="80" height="80" as="geometry" />
        </mxCell>
        <mxCell id="1PEm1bFxlQT37k7Xql6N-10" value="&lt;span style=&quot;font-size: 22px;&quot;&gt;自然&lt;br&gt;资源&lt;br&gt;&lt;/span&gt;" style="ellipse;whiteSpace=wrap;html=1;aspect=fixed;" vertex="1" parent="1">
          <mxGeometry x="460" y="210" width="80" height="80" as="geometry" />
        </mxCell>
        <mxCell id="1PEm1bFxlQT37k7Xql6N-11" value="&lt;span style=&quot;font-size: 22px;&quot;&gt;政策&lt;br&gt;法规&lt;br&gt;&lt;/span&gt;" style="ellipse;whiteSpace=wrap;html=1;aspect=fixed;" vertex="1" parent="1">
          <mxGeometry x="90" y="290" width="80" height="80" as="geometry" />
        </mxCell>
        <mxCell id="1PEm1bFxlQT37k7Xql6N-12" value="" style="endArrow=classic;html=1;rounded=0;entryX=0;entryY=1;entryDx=0;entryDy=0;" edge="1" parent="1" target="1PEm1bFxlQT37k7Xql6N-1">
          <mxGeometry relative="1" as="geometry">
            <mxPoint x="140" y="290" as="sourcePoint" />
            <mxPoint x="240" y="290" as="targetPoint" />
          </mxGeometry>
        </mxCell>
        <mxCell id="1PEm1bFxlQT37k7Xql6N-13" value="属于" style="edgeLabel;resizable=0;html=1;align=center;verticalAlign=middle;" connectable="0" vertex="1" parent="1PEm1bFxlQT37k7Xql6N-12">
          <mxGeometry relative="1" as="geometry" />
        </mxCell>
        <mxCell id="1PEm1bFxlQT37k7Xql6N-16" value="" style="endArrow=classic;html=1;rounded=0;exitX=0.063;exitY=0.183;exitDx=0;exitDy=0;exitPerimeter=0;" edge="1" parent="1" source="1PEm1bFxlQT37k7Xql6N-9" target="1PEm1bFxlQT37k7Xql6N-1">
          <mxGeometry relative="1" as="geometry">
            <mxPoint x="150" y="300" as="sourcePoint" />
            <mxPoint x="202" y="178" as="targetPoint" />
          </mxGeometry>
        </mxCell>
        <mxCell id="1PEm1bFxlQT37k7Xql6N-17" value="属于" style="edgeLabel;resizable=0;html=1;align=center;verticalAlign=middle;" connectable="0" vertex="1" parent="1PEm1bFxlQT37k7Xql6N-16">
          <mxGeometry relative="1" as="geometry" />
        </mxCell>
        <mxCell id="1PEm1bFxlQT37k7Xql6N-19" value="" style="endArrow=classic;html=1;rounded=0;exitX=0;exitY=0;exitDx=0;exitDy=0;entryX=1;entryY=1;entryDx=0;entryDy=0;" edge="1" parent="1" source="1PEm1bFxlQT37k7Xql6N-10" target="1PEm1bFxlQT37k7Xql6N-1">
          <mxGeometry relative="1" as="geometry">
            <mxPoint x="398" y="295" as="sourcePoint" />
            <mxPoint x="357" y="187" as="targetPoint" />
          </mxGeometry>
        </mxCell>
        <mxCell id="1PEm1bFxlQT37k7Xql6N-20" value="位于" style="edgeLabel;resizable=0;html=1;align=center;verticalAlign=middle;" connectable="0" vertex="1" parent="1PEm1bFxlQT37k7Xql6N-19">
          <mxGeometry relative="1" as="geometry" />
        </mxCell>
        <mxCell id="1PEm1bFxlQT37k7Xql6N-22" value="" style="endArrow=classic;html=1;rounded=0;entryX=0.594;entryY=0.999;entryDx=0;entryDy=0;entryPerimeter=0;" edge="1" parent="1" source="1PEm1bFxlQT37k7Xql6N-11" target="1PEm1bFxlQT37k7Xql6N-8">
          <mxGeometry relative="1" as="geometry">
            <mxPoint x="150" y="300" as="sourcePoint" />
            <mxPoint x="202" y="178" as="targetPoint" />
          </mxGeometry>
        </mxCell>
        <mxCell id="1PEm1bFxlQT37k7Xql6N-23" value="发布时间" style="edgeLabel;resizable=0;html=1;align=center;verticalAlign=middle;" connectable="0" vertex="1" parent="1PEm1bFxlQT37k7Xql6N-22">
          <mxGeometry relative="1" as="geometry" />
        </mxCell>
        <mxCell id="1PEm1bFxlQT37k7Xql6N-24" value="&lt;span style=&quot;font-size: 22px;&quot;&gt;指标&lt;br&gt;&lt;/span&gt;" style="ellipse;whiteSpace=wrap;html=1;aspect=fixed;" vertex="1" parent="1">
          <mxGeometry x="100" y="430" width="80" height="80" as="geometry" />
        </mxCell>
        <mxCell id="1PEm1bFxlQT37k7Xql6N-25" value="&lt;span style=&quot;font-size: 22px;&quot;&gt;指标&lt;br&gt;&lt;/span&gt;" style="ellipse;whiteSpace=wrap;html=1;aspect=fixed;" vertex="1" parent="1">
          <mxGeometry x="334" y="430" width="80" height="80" as="geometry" />
        </mxCell>
      </root>
    </mxGraphModel>
  </diagram>
</mxfile>
